<svg id="Layer_1" data-name="Layer 1" xmlns="http://www.w3.org/2000/svg" width="500" height="337.68" viewBox="0 0 500 337.68"><path d="M250.27,173.37A104.78,104.78,0,1,0,355.05,278.15,104.78,104.78,0,0,0,250.27,173.37Zm0,177a72.21,72.21,0,1,1,72.21-72.2A72.2,72.2,0,0,1,250.27,350.35Z" transform="translate(0 -81.08)" fill="#37393c"/><path d="M500,197.18a59.64,59.64,0,0,0-59.64-59.64H332.42A17.54,17.54,0,0,1,314.88,120h0A38.92,38.92,0,0,0,276,81.08H224.59A38.91,38.91,0,0,0,185.67,120h0a17.55,17.55,0,0,1-17.54,17.54H60.18A59.64,59.64,0,0,0,.54,197.18v8.76h159.6a115.43,115.43,0,0,1,180.45,0H499.46m0,15.2H350.9a115.2,115.2,0,0,1,15,58c-.53,62.78-51.84,114.09-114.62,114.63a115.47,115.47,0,0,1-101.5-172.64H.54V381.26A37.49,37.49,0,0,0,38,418.75H462.51A37.49,37.49,0,0,0,500,381.26M283,124.12a13.42,13.42,0,0,1-13.42,13.42h-38.7a13.41,13.41,0,0,1-13.41-13.42v-4.66a13.41,13.41,0,0,1,13.41-13.41h38.7A13.42,13.42,0,0,1,283,119.46Zm178.41,50.76a9.35,9.35,0,0,1-9.34,9.35H418.68a9.35,9.35,0,0,1-9.34-9.35v-3a9.34,9.34,0,0,1,9.34-9.34h33.43a9.34,9.34,0,0,1,9.34,9.34Z" transform="translate(0 -81.08)" fill="#37393c"/><line x1="0.54" y1="124.86" y2="124.86" fill="#37393c" stroke="#fff" stroke-miterlimit="10" stroke-width="1.09"/><line y1="140.07" x2="0.54" y2="140.07" fill="#37393c" stroke="#fff" stroke-miterlimit="10" stroke-width="1.09"/></svg>