<svg id="Layer_1" data-name="Layer 1" xmlns="http://www.w3.org/2000/svg" width="500" height="284" viewBox="0 0 500 284"><path d="M0,160H499.5V136.6a28.1,28.1,0,0,0-28.1-28.1H27.6A28.1,28.1,0,0,0-.5,136.6m0,227.8a28.1,28.1,0,0,0,28.1,28.1H471.4a28.1,28.1,0,0,0,28.1-28.1V206H0M247.67,324.1a5.9,5.9,0,0,1-5.9,5.9H52.23a5.9,5.9,0,0,1-5.9-5.9v-8.2a5.9,5.9,0,0,1,5.9-5.9H241.77a5.9,5.9,0,0,1,5.9,5.9ZM397,275.25a5.25,5.25,0,0,1,5.25-5.25h44.5a5.25,5.25,0,0,1,5.25,5.25v9.5a5.25,5.25,0,0,1-5.25,5.25h-44.5a5.25,5.25,0,0,1-5.25-5.25ZM46,275.9a5.9,5.9,0,0,1,5.9-5.9H342.1a5.9,5.9,0,0,1,5.9,5.9v8.2a5.9,5.9,0,0,1-5.9,5.9H51.9a5.9,5.9,0,0,1-5.9-5.9Z" transform="translate(0.5 -108.5)" fill="#37393c"/></svg>