<svg id="Layer_1" data-name="Layer 1" xmlns="http://www.w3.org/2000/svg" width="500" height="336.09" viewBox="0 0 500 336.09"><path d="M408.23,193.54A106.91,106.91,0,0,0,276,127.7,106.77,106.77,0,0,0,76.22,196.87C32.15,210-.22,251-.22,299.21h0C-.22,358,47.84,406,106.57,406H393c58.74,0,106.79-48.05,106.79-106.79h0C499.78,245.65,459.81,201,408.23,193.54Zm-204,77.39,25.83,0v-83.9A10.05,10.05,0,0,1,240.15,177h19.76A10.06,10.06,0,0,1,270,187.06V271l25.38,0a4,4,0,0,1,3.32,6.21l-22.43,33.57-23.11,34.85a4,4,0,0,1-6.65,0l-23.12-34.85-22.43-33.57A4,4,0,0,1,204.26,270.93ZM311.34,366a6,6,0,0,1-6,6H194.68a6,6,0,0,1-6-6v-1.69a6,6,0,0,1,6-6H305.32a6,6,0,0,1,6,6Z" transform="translate(0.22 -69.91)" fill="#37393c"/></svg>