<svg xmlns="http://www.w3.org/2000/svg"><symbol id="filter" viewBox="0 0 64 64"><path fill="#37393c" d="M32 0a32 32 0 1 0 32 32A32 32 0 0 0 32 0zm3.4 35.7v15.6l-7.1-7.7v-8.3l-13-17.2h33.4z"/></symbol><symbol id="profile-1" viewBox="0 0 64 64"><path fill="#37393c" d="M32 0a32 32 0 1 0 32 32A32 32 0 0 0 32 0zm16.4 37.8L37.8 48.4a8.2 8.2 0 0 1-11.6 0L15.6 37.8a8.2 8.2 0 0 1 0-11.6l10.6-10.6a8.2 8.2 0 0 1 11.6 0l10.6 10.6a8.2 8.2 0 0 1 0 11.6z"/></symbol><symbol id="profile-2" viewBox="0 0 64 64"><path fill="#37393c" d="M32 0a32 32 0 1 0 32 32A32 32 0 0 0 32 0zm15.2 41.8l-4.1.6a5.3 5.3 0 0 0-4.2 3L37 49.2a5.6 5.6 0 0 1-10 0l-1.9-3.8a5.3 5.3 0 0 0-4.2-3l-4.1-.6a5.6 5.6 0 0 1-3.1-9.5l3-3a5.6 5.6 0 0 0 1.6-4.9l-.7-4.2a5.5 5.5 0 0 1 8.1-5.8l3.7 1.9a5.3 5.3 0 0 0 5.2 0l3.7-1.9a5.5 5.5 0 0 1 8.1 5.8l-.7 4.2a5.6 5.6 0 0 0 1.6 4.9l3 3a5.6 5.6 0 0 1-3.1 9.5z"/></symbol><symbol id="profile-3" viewBox="0 0 64 64"><path fill="#37393c" d="M54.6 9.4a32 32 0 1 0 0 45.2 31.9 31.9 0 0 0 0-45.2zM50 26.2L36.9 48.9a5.7 5.7 0 0 1-9.8 0L14 26.2a5.7 5.7 0 0 1 4.9-8.5h26.2a5.7 5.7 0 0 1 4.9 8.5z"/></symbol><symbol id="profile-4" viewBox="0 0 64 64"><path fill="#37393c" d="M32 0a32 32 0 1 0 32 32A32 32 0 0 0 32 0zm17.7 32.2l-3.2 10a9.7 9.7 0 0 1-9.2 6.7H26.7a9.7 9.7 0 0 1-9.2-6.7l-3.2-10a9.6 9.6 0 0 1 3.5-10.8l8.5-6.2a9.6 9.6 0 0 1 11.4 0l8.5 6.2a9.6 9.6 0 0 1 3.5 10.8z"/></symbol><symbol id="search" viewBox="0 0 64 64"><path fill="#37393c" d="M62.1 51.6L51.3 40.9c0-.1-.1-.1-.2-.2a27.3 27.3 0 1 0-23.8 13.9 26.7 26.7 0 0 0 13.2-3.4c.1.1.2.2.2.3l10.8 10.7a5.9 5.9 0 0 0 8.5 0l2.1-2a6.2 6.2 0 0 0 0-8.6zM27.3 41.5a14.2 14.2 0 1 1 14.2-14.2 14.2 14.2 0 0 1-14.2 14.2z"/></symbol></svg>