<?xml version="1.0" encoding="utf-8"?>
<!-- Generator: Adobe Illustrator 24.0.0, SVG Export Plug-In . SVG Version: 6.00 Build 0)  -->
<svg version="1.1" id="Layer_1" xmlns="http://www.w3.org/2000/svg" xmlns:xlink="http://www.w3.org/1999/xlink" x="0px" y="0px"
	 viewBox="0 0 255.5 255.5" style="enable-background:new 0 0 255.5 255.5;" xml:space="preserve">
<style type="text/css">
	.st0{fill:#37393C;}
</style>
<path class="st0" d="M219.4,32.5l-4.7,4.8C191,13.2,158.5-0.2,124.7,0C56.3,0.4,0.4,56.3,0,124.7c-0.2,33.8,13.2,66.3,37.3,90
	l-4.8,4.7c-13.3,13.3-3.8,36.1,15,36.1h180.3c15.3,0,27.7-12.4,27.7-27.7V47.5C255.5,28.7,232.7,19.2,219.4,32.5z M200.6,139.5
	l-61.1,61.1c-7.5,7.4-19.5,7.4-27,0L81.9,170l-30.5-30.5c-7.5-7.4-7.5-19.4-0.1-26.9c0,0,0.1-0.1,0.1-0.1l61.1-61.1
	c7.4-7.5,19.4-7.5,26.9-0.1c0,0,0.1,0.1,0.1,0.1L170,81.9l30.6,30.6C208,120,208,132,200.6,139.5L200.6,139.5z"/>
<path class="st0" d="M112,101.2h27c6,0,10.8,4.8,10.8,10.8v27c0,6-4.8,10.8-10.8,10.8h-27c-6,0-10.8-4.8-10.8-10.8v-27
	C101.2,106,106,101.2,112,101.2z"/>
</svg>
