<?xml version="1.0" encoding="utf-8"?>
<!-- Generator: Adobe Illustrator 24.0.0, SVG Export Plug-In . SVG Version: 6.00 Build 0)  -->
<svg version="1.1" id="Layer_1" xmlns="http://www.w3.org/2000/svg" xmlns:xlink="http://www.w3.org/1999/xlink" x="0px" y="0px"
	 viewBox="0 0 252 252" style="enable-background:new 0 0 252 252;" xml:space="preserve">
<style type="text/css">
	.st0{fill:#37393C;}
</style>
<path class="st0" d="M216.5,32l-4.8,4.7C188.3,12.9,156.2-0.4,122.8,0C55.3,0.7,0.7,55.3,0,122.8c-0.4,33.4,12.9,65.5,36.7,88.9
	l-4.7,4.8c-8.1,8.3-7.9,21.5,0.3,29.6c3.8,3.7,8.9,5.9,14.3,5.9h178.1c15.1,0,27.3-12.2,27.3-27.3l0,0V47c0-11.5-9.3-20.9-20.9-20.9
	C225.7,26,220.4,28.2,216.5,32L216.5,32z M197.9,137.5l-60.4,60.4c-7.4,7.2-19.1,7.2-26.5,0l-30.4-30l-30-30.4
	c-7.3-6.9-7.7-18.4-0.8-25.7l0.8-0.8L111,50.6c7.4-7.2,19.1-7.2,26.5,0l30,30l30.4,30.4C205.1,118.4,205.1,130.1,197.9,137.5z"/>
<path class="st0" d="M110.6,99.9h26.5c5.9,0,10.6,4.7,10.6,10.6c0,0,0,0.1,0,0.1v26.5c0.1,5.8-4.6,10.5-10.4,10.6
	c-0.1,0-0.1,0-0.2,0h-26.5c-5.9,0.1-10.6-4.6-10.7-10.5c0,0,0-0.1,0-0.1v-26.5C99.9,104.7,104.7,99.9,110.6,99.9z"/>
</svg>
