<?xml version="1.0" encoding="utf-8"?>
<!-- Generator: Adobe Illustrator 24.0.0, SVG Export Plug-In . SVG Version: 6.00 Build 0)  -->
<svg version="1.1" id="Layer_1" xmlns="http://www.w3.org/2000/svg" xmlns:xlink="http://www.w3.org/1999/xlink" x="0px" y="0px"
	 viewBox="0 0 85 110.6" style="enable-background:new 0 0 85 110.6;" xml:space="preserve">
<style type="text/css">
	.st0{fill:#37393C;}
</style>
<g>
	<g id="Bell-House">
		<path class="st0" d="M82.4,78.7C65.1,53,76.4,54.4,69.6,31c-4-13.7-12.7-19.3-19.2-21.5c0.1-0.5,0.1-1,0.1-1.5c0-4.4-3.6-8-8-8
			s-8,3.6-8,8c0,0.5,0,0.9,0.1,1.3C28.1,11.4,19,16.9,14.9,31C8.1,54.4,19.3,52.9,2.1,78.7c-6.9,10.3,4,16.4,16.1,16.4h51.4
			C82.1,95.1,89.1,88.8,82.4,78.7z"/>
	</g>
	<g>
		<path class="st0" d="M42,110.6c6.6,0,12-5.4,12-12H30C30,105.2,35.4,110.6,42,110.6z"/>
	</g>
</g>
</svg>
