<svg id="Layer_1" data-name="Layer 1" xmlns="http://www.w3.org/2000/svg" width="500" height="480.63" viewBox="0 0 500 480.63"><path d="M296.7,38.31l36.77,74.84a52,52,0,0,0,39.3,28.55l82.54,11.85c42.76,6.14,59.85,58.72,28.86,88.82l-59.81,58.1a52.08,52.08,0,0,0-15,46.21l14.23,82.15C431,471.4,386.24,503.9,348,483.73L274.29,444.8a52.05,52.05,0,0,0-48.58,0L152,483.73C113.76,503.9,69,471.4,76.42,428.83l14.23-82.15a52.08,52.08,0,0,0-15-46.21l-59.81-58.1c-31-30.1-13.9-82.68,28.86-88.82l82.54-11.85a52,52,0,0,0,39.3-28.55L203.3,38.31C222.36-.46,277.64-.46,296.7,38.31Z" transform="translate(0 -9.23)" fill="#37393c"/></svg>