<svg id="Layer_1" data-name="Layer 1" xmlns="http://www.w3.org/2000/svg" width="500" height="500" viewBox="0 0 500 500"><path d="M403.48,221.7H395v21.56h7.31q8.64,0,12.14-3a9.66,9.66,0,0,0,3.49-7.68,10.74,10.74,0,0,0-3-7.72Q411.86,221.7,403.48,221.7Z" transform="translate(0.32 -0.38)" fill="#37393c"/><path d="M298.71,223q-9,0-14.51,6.39t-5.47,21.17q0,14.64,5.44,21T299,278q9.63,0,14.9-6.27t5.28-22.48q0-13.65-5.51-19.95T298.71,223Z" transform="translate(0.32 -0.38)" fill="#37393c"/><path d="M353.23.38H146.13L-.32,146.83v207.1L146.13,500.38h207.1L499.68,353.93V146.83Zm-218.31,284a32.18,32.18,0,0,1-14.38,11.91q-9.23,4.05-23.27,4.05-24.66,0-34.16-9.49T52.36,266.73L80.78,265q.93,6.93,3.76,10.55,4.62,5.88,13.19,5.87,6.39,0,9.86-3a9,9,0,0,0,3.46-7,8.87,8.87,0,0,0-3.3-6.72q-3.3-3-15.3-5.61-19.65-4.41-28-11.73A23.59,23.59,0,0,1,56,228.69a25.35,25.35,0,0,1,4.32-14.08q4.32-6.63,13-10.42t23.77-3.79q18.53,0,28.25,6.89t11.57,21.92l-28.15,1.65q-1.12-6.53-4.72-9.49t-9.92-3q-5.2,0-7.85,2.21A6.78,6.78,0,0,0,83.62,226a5.38,5.38,0,0,0,2.17,4.16q2.11,1.91,10,3.56,19.58,4.22,28.05,8.54T136.2,253a27.22,27.22,0,0,1,3.86,14.31A30.62,30.62,0,0,1,134.92,284.4ZM239.1,225.92H208.64v72.79H178.77V225.92H148.3V202.05h90.8Zm104.21,51.53a40.67,40.67,0,0,1-16.48,16.88q-10.79,6-26.87,6-16.35,0-27.07-5.21a40.78,40.78,0,0,1-17.37-16.48q-6.66-11.28-6.66-28.22,0-23.67,13.18-36.86t36.73-13.19q24.14,0,37.19,13T349,249.65Q349,266.6,343.31,277.45ZM438.2,254.6q-8.81,8.25-26.87,8.24H395v35.87H365V202.05h49.66q16.22,0,24.29,7.71t8.08,22Q447,246.36,438.2,254.6Z" transform="translate(0.32 -0.38)" fill="#37393c"/></svg>