<svg id="Layer_1" data-name="Layer 1" xmlns="http://www.w3.org/2000/svg" width="322" height="500" viewBox="0 0 322 500"><circle cx="161" cy="467" r="20" fill="none"/><path d="M384.09,0H115.91A26.91,26.91,0,0,0,89,26.91V473.09A26.91,26.91,0,0,0,115.91,500H384.09A26.91,26.91,0,0,0,411,473.09V26.91A26.91,26.91,0,0,0,384.09,0ZM327.5,11a6.5,6.5,0,1,1-6.5,6.5A6.5,6.5,0,0,1,327.5,11Zm-131,0h107a6.5,6.5,0,0,1,0,13h-107a6.5,6.5,0,0,1,0-13ZM250,487a20,20,0,1,1,20-20A20,20,0,0,1,250,487Zm135-81.91A26.91,26.91,0,0,1,358.09,432H141.91A26.91,26.91,0,0,1,115,405.09V60.91A26.91,26.91,0,0,1,141.91,34H358.09A26.91,26.91,0,0,1,385,60.91Z" transform="translate(-89)" fill="#37393c"/><rect x="46" y="71" width="135" height="57" rx="16.27" fill="#37393c"/><rect x="135" y="150" width="143" height="51" rx="16.27" fill="#37393c"/><rect x="46" y="221" width="95" height="23" rx="11.5" fill="#37393c"/><rect x="167" y="265" width="111" height="38" rx="14.39" fill="#37393c"/><rect x="88" y="397" width="146" height="26" rx="9.78" fill="#37393c"/><rect x="248" y="397" width="26" height="26" rx="9.78" fill="#37393c"/><rect x="49" y="397" width="26" height="26" fill="#37393c"/><rect x="49" y="397" width="26" height="26" rx="9.78" fill="#37393c"/><rect x="49" y="362" width="26" height="26" rx="9.78" fill="#37393c"/><rect x="49" y="327" width="26" height="26" rx="9.78" fill="#37393c"/><rect x="88.8" y="362" width="26" height="26" rx="9.78" fill="#37393c"/><rect x="88.8" y="327" width="26" height="26" rx="9.78" fill="#37393c"/><rect x="128.6" y="362" width="26" height="26" rx="9.78" fill="#37393c"/><rect x="128.6" y="327" width="26" height="26" rx="9.78" fill="#37393c"/><rect x="168.4" y="362" width="26" height="26" rx="9.78" fill="#37393c"/><rect x="168.4" y="327" width="26" height="26" rx="9.78" fill="#37393c"/><rect x="208.2" y="362" width="26" height="26" rx="9.78" fill="#37393c"/><rect x="208.2" y="327" width="26" height="26" rx="9.78" fill="#37393c"/><rect x="248" y="362" width="26" height="26" rx="9.78" fill="#37393c"/><rect x="248" y="327" width="26" height="26" rx="9.78" fill="#37393c"/></svg>