<svg id="Layer_1" data-name="Layer 1" xmlns="http://www.w3.org/2000/svg" width="500" height="500" viewBox="0 0 500 500"><path d="M250,0C111.93,0,0,111.93,0,250S111.93,500,250,500,500,388.07,500,250,388.07,0,250,0Zm0,454C137.33,454,46,362.67,46,250S137.33,46,250,46s204,91.33,204,204S362.67,454,250,454Z" fill="#37393c"/><path d="M250,86.8A163.2,163.2,0,1,0,413.2,250,163.2,163.2,0,0,0,250,86.8Zm0,280.94A117.74,117.74,0,1,1,367.74,250,117.75,117.75,0,0,1,250,367.74Z" fill="#37393c"/><circle cx="250" cy="250" r="78.1" fill="#37393c"/></svg>