<svg id="Layer_1" data-name="Layer 1" xmlns="http://www.w3.org/2000/svg" width="287" height="424" viewBox="0 0 287 424"><rect x="15.5" y="70" width="256" height="354" rx="25.43" fill="#37393c"/><path d="M290.17,88.5h0A12.5,12.5,0,0,0,277.67,76h-42a12.5,12.5,0,0,0-12.5,12.5h0a12.5,12.5,0,0,1-12.5,12.5h-82a15.5,15.5,0,0,0-15.5,15.5h0a15.5,15.5,0,0,0,15.5,15.5h256a15.5,15.5,0,0,0,15.5-15.5h0a15.5,15.5,0,0,0-15.5-15.5h-82A12.5,12.5,0,0,1,290.17,88.5Z" transform="translate(-113.17 -76)" fill="#37393c"/></svg>