<svg xmlns="http://www.w3.org/2000/svg"><symbol id="filter" viewBox="0 0 252 252"><path d="M126 0a126 126 0 1 0 126 126A126 126 0 0 0 126 0zm13.4 140.6V202l-28-30.3V139L60.2 71.3h131.6z"/></symbol><symbol id="profile-1" viewBox="0 0 252 252"><path d="M126 0a126 126 0 1 0 126 126A126 126 0 0 0 126 0zm69.7 126.8l-12.6 39.4a38 38 0 0 1-36.2 26.3h-41.8a38 38 0 0 1-36.2-26.3l-12.6-39.4a37.7 37.7 0 0 1 13.8-42.5l33.5-24.4a37.5 37.5 0 0 1 44.8 0l33.5 24.4a37.7 37.7 0 0 1 13.8 42.5z"/></symbol><symbol id="profile-2" viewBox="0 0 252 251.8"><path d="M215.1 37a125.9 125.9 0 1 0-.3 178.1l.3-.3a125.5 125.5 0 0 0 .3-177.5zM197 103.1l-51.6 89.3a22.4 22.4 0 0 1-38.5 0l-51.6-89.3a22.5 22.5 0 0 1 8.5-30.6 23.9 23.9 0 0 1 10.8-2.9h103.1a22.5 22.5 0 0 1 22.2 22.7 23.9 23.9 0 0 1-2.9 10.8z"/></symbol><symbol id="profile-3" viewBox="0 0 252 252"><path d="M126 0a126 126 0 1 0 126 126A126 126 0 0 0 126 0zm64.6 148.8l-41.8 41.8a32.2 32.2 0 0 1-45.6 0l-41.8-41.8a32.2 32.2 0 0 1 0-45.6l41.8-41.8a32.2 32.2 0 0 1 45.6 0l41.8 41.8a32.2 32.2 0 0 1 0 45.6z"/></symbol><symbol id="search" viewBox="0 0 251.3 252"><path d="M244.4 203.2L201.9 161c0-.4-.4-.4-.8-.8a107.3 107.3 0 1 0-93.7 54.8 105.2 105.2 0 0 0 52-13.4c.4.4.8.8.8 1.2l42.5 42.1a23.2 23.2 0 0 0 32.8.6l.7-.6 8.2-7.9a24.3 24.3 0 0 0 0-33.8zm-137-39.8a55.9 55.9 0 1 1 55.9-55.9 55.9 55.9 0 0 1-55.9 55.9z"/></symbol><symbol id="logo" viewBox="0 0 252 252"><path d="M216.5 32l-4.8 4.7A122.7 122.7 0 0 0 122.8 0 124.1 124.1 0 0 0 0 122.8a122.7 122.7 0 0 0 36.7 88.9l-4.7 4.8A20.9 20.9 0 0 0 46.6 252h178.1a27.3 27.3 0 0 0 27.3-27.3V47a20.9 20.9 0 0 0-35.5-15zm-18.6 105.5l-60.4 60.4a19 19 0 0 1-26.5 0l-30.4-30-30-30.4a18.2 18.2 0 0 1-.8-25.7l.8-.8L111 50.6a19 19 0 0 1 26.5 0l30 30 30.4 30.4a19 19 0 0 1 0 26.5z"/><path d="M110.6 99.9h26.5a10.6 10.6 0 0 1 10.6 10.7v26.5a10.5 10.5 0 0 1-10.6 10.6h-26.5a10.6 10.6 0 0 1-10.7-10.6v-26.5a10.7 10.7 0 0 1 10.7-10.7z"/></symbol><symbol id="profile-4" viewBox="0 0 252 252"><path d="M126 0a126 126 0 1 0 126 126A126 126 0 0 0 126 0zm59.9 164.6l-16.2 2.3a21 21 0 0 0-16.5 11.9l-7.5 14.9a22 22 0 0 1-39.4 0l-7.5-14.9A20.6 20.6 0 0 0 82.3 167l-16.1-2.4a22 22 0 0 1-12.3-37.4l11.9-11.8a22.4 22.4 0 0 0 6.3-19.3l-2.8-16.6a21.7 21.7 0 0 1 31.9-22.8l14.6 7.5a20.6 20.6 0 0 0 20.4 0l14.6-7.5a21.7 21.7 0 0 1 31.9 22.8l-2.8 16.6a22.4 22.4 0 0 0 6.3 19.3l11.9 11.8a22.1 22.1 0 0 1-12.2 37.4z"/></symbol></svg>