<svg id="Layer_1" data-name="Layer 1" xmlns="http://www.w3.org/2000/svg" width="255.5" height="255.5" viewBox="0 0 255.5 255.5"><title>IcoStash_Logo</title><path d="M219.9,33l-4.7,4.8A125.1,125.1,0,0,0,125.2.5C56.8.9.9,56.8.5,125.2a125.1,125.1,0,0,0,37.3,90L33,219.9C19.7,233.2,29.2,256,48,256H228.3A27.7,27.7,0,0,0,256,228.3V48C256,29.2,233.2,19.7,219.9,33ZM201.1,140,140,201.1a19.2,19.2,0,0,1-27,0L82.4,170.5,51.9,140a19,19,0,0,1,0-27L113,51.9a19,19,0,0,1,27,0l30.5,30.5L201.1,113A19.2,19.2,0,0,1,201.1,140Z" transform="translate(-0.5 -0.5)"/><rect x="101.2" y="101.2" width="48.6" height="48.57" rx="10.8"/></svg>