<svg enable-background="new 0 0 255.5 255.5" viewBox="0 0 255.5 255.5" xmlns="http://www.w3.org/2000/svg"><g fill="#9ba2ad"><path d="m219.4 32.5-4.7 4.8c-23.7-24.1-56.2-37.5-90-37.3-68.4.4-124.3 56.3-124.7 124.7-.2 33.8 13.2 66.3 37.3 90l-4.8 4.7c-13.3 13.3-3.8 36.1 15 36.1h180.3c15.3 0 27.7-12.4 27.7-27.7v-180.3c0-18.8-22.8-28.3-36.1-15zm-18.8 107-61.1 61.1c-7.5 7.4-19.5 7.4-27 0l-30.6-30.6-30.5-30.5c-7.5-7.4-7.5-19.4-.1-26.9 0 0 .1-.1.1-.1l61.1-61.1c7.4-7.5 19.4-7.5 26.9-.1 0 0 .1.1.1.1l30.5 30.5 30.6 30.6c7.4 7.5 7.4 19.5 0 27z"/><path d="m112 101.2h27c6 0 10.8 4.8 10.8 10.8v27c0 6-4.8 10.8-10.8 10.8h-27c-6 0-10.8-4.8-10.8-10.8v-27c0-6 4.8-10.8 10.8-10.8z"/></g></svg>